<svg xmlns="http://www.w3.org/2000/svg" xmlns:xlink="http://www.w3.org/1999/xlink" width="150" zoomAndPan="magnify" viewBox="0 0 112.5 37.5" height="50" preserveAspectRatio="xMidYMid meet" version="1.0"><defs><g/><clipPath id="952ad74213"><path d="M 90 8 L 111.511719 8 L 111.511719 29 L 90 29 Z M 90 8 " clip-rule="nonzero"/></clipPath><clipPath id="973dcdb8a7"><path d="M 89.71875 8.714844 L 110.40625 7.507812 L 111.613281 28.195312 L 90.925781 29.402344 Z M 89.71875 8.714844 " clip-rule="nonzero"/></clipPath><clipPath id="b343977590"><path d="M 89.71875 8.714844 L 110.40625 7.507812 L 111.613281 28.195312 L 90.925781 29.402344 Z M 89.71875 8.714844 " clip-rule="nonzero"/></clipPath><clipPath id="76ac0d91d8"><path d="M 98 12 L 103 12 L 103 19 L 98 19 Z M 98 12 " clip-rule="nonzero"/></clipPath><clipPath id="7165c4a143"><path d="M 89.71875 8.714844 L 110.40625 7.507812 L 111.613281 28.195312 L 90.925781 29.402344 Z M 89.71875 8.714844 " clip-rule="nonzero"/></clipPath><clipPath id="7315221027"><path d="M 89.71875 8.714844 L 110.40625 7.507812 L 111.613281 28.195312 L 90.925781 29.402344 Z M 89.71875 8.714844 " clip-rule="nonzero"/></clipPath><clipPath id="58e9132d7a"><path d="M 102 11 L 104 11 L 104 14 L 102 14 Z M 102 11 " clip-rule="nonzero"/></clipPath><clipPath id="ce57580312"><path d="M 89.71875 8.714844 L 110.40625 7.507812 L 111.613281 28.195312 L 90.925781 29.402344 Z M 89.71875 8.714844 " clip-rule="nonzero"/></clipPath><clipPath id="36fa3a4c8d"><path d="M 89.71875 8.714844 L 110.40625 7.507812 L 111.613281 28.195312 L 90.925781 29.402344 Z M 89.71875 8.714844 " clip-rule="nonzero"/></clipPath><clipPath id="2ddce32c4f"><path d="M 100 19 L 102 19 L 102 25 L 100 25 Z M 100 19 " clip-rule="nonzero"/></clipPath><clipPath id="ac92c92807"><path d="M 89.71875 8.714844 L 110.40625 7.507812 L 111.613281 28.195312 L 90.925781 29.402344 Z M 89.71875 8.714844 " clip-rule="nonzero"/></clipPath><clipPath id="2414a15b80"><path d="M 89.71875 8.714844 L 110.40625 7.507812 L 111.613281 28.195312 L 90.925781 29.402344 Z M 89.71875 8.714844 " clip-rule="nonzero"/></clipPath></defs><g clip-path="url(#952ad74213)"><g clip-path="url(#973dcdb8a7)"><g clip-path="url(#b343977590)"><path fill="#ffd700" d="M 110.960938 16.6875 C 110.953125 16.644531 110.910156 16.609375 110.867188 16.613281 C 110.820312 16.617188 110.78125 16.65625 110.78125 16.699219 C 110.589844 20.820312 107.3125 24.21875 103.105469 24.464844 C 98.609375 24.726562 94.742188 21.289062 94.480469 16.792969 C 94.238281 12.617188 97.183594 8.988281 101.203125 8.28125 C 101.25 8.273438 101.28125 8.230469 101.28125 8.1875 C 101.277344 8.140625 101.238281 8.101562 101.195312 8.101562 C 100.835938 8.085938 100.472656 8.085938 100.105469 8.109375 C 94.371094 8.441406 89.988281 13.371094 90.324219 19.101562 C 90.660156 24.835938 95.585938 29.21875 101.320312 28.882812 C 107.054688 28.550781 111.4375 23.621094 111.101562 17.890625 C 111.078125 17.480469 111.03125 17.082031 110.960938 16.6875 Z M 110.886719 17.5 C 110.902344 17.632812 110.910156 17.765625 110.917969 17.898438 C 111.25 23.535156 106.941406 28.375 101.308594 28.703125 C 95.675781 29.03125 90.835938 24.726562 90.503906 19.09375 C 90.175781 13.460938 94.484375 8.617188 100.117188 8.289062 C 100.210938 8.285156 100.304688 8.28125 100.398438 8.277344 C 96.691406 9.300781 94.066406 12.808594 94.300781 16.804688 C 94.566406 21.402344 98.519531 24.914062 103.113281 24.648438 C 107.144531 24.410156 110.339844 21.347656 110.886719 17.5 Z M 110.886719 17.5 " fill-opacity="1" fill-rule="evenodd"/></g></g></g><g clip-path="url(#76ac0d91d8)"><g clip-path="url(#7165c4a143)"><g clip-path="url(#7315221027)"><path fill="#ffd700" d="M 100.363281 12.5 C 100.363281 12.5 100.390625 12.667969 100.433594 12.90625 C 100.59375 13.863281 101.371094 14.597656 102.335938 14.707031 C 102.515625 14.726562 102.632812 14.738281 102.632812 14.738281 C 102.632812 14.738281 102.550781 14.757812 102.421875 14.789062 C 101.4375 15.015625 100.742188 15.890625 100.734375 16.898438 C 100.730469 17.785156 100.722656 18.679688 100.722656 18.679688 C 100.722656 18.679688 100.613281 17.789062 100.503906 16.910156 C 100.378906 15.910156 99.585938 15.125 98.585938 15.011719 C 98.453125 14.996094 98.367188 14.988281 98.367188 14.988281 C 98.367188 14.988281 98.484375 14.960938 98.660156 14.921875 C 99.605469 14.699219 100.289062 13.882812 100.339844 12.914062 C 100.351562 12.671875 100.363281 12.5 100.363281 12.5 Z M 100.363281 12.5 " fill-opacity="1" fill-rule="evenodd"/></g></g></g><g clip-path="url(#58e9132d7a)"><g clip-path="url(#ce57580312)"><g clip-path="url(#36fa3a4c8d)"><path fill="#ffd700" d="M 102.910156 11.273438 C 102.910156 11.273438 102.917969 11.320312 102.929688 11.390625 C 103.007812 11.882812 103.40625 12.261719 103.898438 12.316406 C 103.417969 12.429688 103.074219 12.855469 103.070312 13.347656 C 103.066406 13.664062 103.066406 13.953125 103.066406 13.953125 C 103.066406 13.953125 103.027344 13.667969 102.988281 13.351562 C 102.925781 12.863281 102.539062 12.480469 102.046875 12.425781 C 102.53125 12.3125 102.882812 11.890625 102.902344 11.394531 C 102.90625 11.320312 102.910156 11.273438 102.910156 11.273438 Z M 102.910156 11.273438 " fill-opacity="1" fill-rule="evenodd"/></g></g></g><g clip-path="url(#2ddce32c4f)"><g clip-path="url(#ac92c92807)"><g clip-path="url(#2414a15b80)"><path fill="#ffd700" d="M 100.929688 23.761719 C 100.9375 23.925781 100.945312 24.023438 100.945312 24.023438 C 100.949219 24.074219 100.992188 24.109375 101.039062 24.109375 C 101.089844 24.105469 101.128906 24.0625 101.125 24.011719 C 101.125 24.011719 101.121094 23.914062 101.109375 23.75 C 101.109375 23.703125 101.066406 23.664062 101.015625 23.667969 C 100.964844 23.667969 100.925781 23.710938 100.929688 23.761719 Z M 100.863281 22.652344 C 100.871094 22.777344 100.878906 22.898438 100.886719 23.015625 C 100.886719 23.0625 100.929688 23.101562 100.980469 23.101562 C 101.03125 23.097656 101.070312 23.054688 101.066406 23.003906 C 101.058594 22.886719 101.054688 22.765625 101.046875 22.640625 C 101.042969 22.589844 101 22.554688 100.949219 22.554688 C 100.898438 22.558594 100.863281 22.601562 100.863281 22.652344 Z M 100.800781 21.542969 C 100.804688 21.660156 100.8125 21.785156 100.820312 21.902344 C 100.824219 21.953125 100.867188 21.992188 100.917969 21.988281 C 100.964844 21.988281 101.003906 21.945312 101.003906 21.894531 C 100.996094 21.773438 100.988281 21.652344 100.980469 21.53125 C 100.976562 21.480469 100.933594 21.441406 100.886719 21.445312 C 100.835938 21.449219 100.796875 21.492188 100.800781 21.542969 Z M 100.734375 20.429688 C 100.742188 20.546875 100.75 20.667969 100.753906 20.792969 C 100.757812 20.84375 100.800781 20.882812 100.851562 20.878906 C 100.902344 20.875 100.941406 20.832031 100.9375 20.78125 C 100.929688 20.65625 100.921875 20.535156 100.914062 20.421875 C 100.914062 20.371094 100.871094 20.332031 100.820312 20.335938 C 100.769531 20.339844 100.730469 20.382812 100.734375 20.429688 Z M 100.675781 19.410156 C 100.675781 19.410156 100.679688 19.511719 100.691406 19.683594 C 100.695312 19.734375 100.738281 19.773438 100.785156 19.769531 C 100.835938 19.765625 100.875 19.722656 100.871094 19.671875 C 100.863281 19.5 100.855469 19.402344 100.855469 19.402344 C 100.851562 19.351562 100.808594 19.3125 100.761719 19.316406 C 100.710938 19.320312 100.671875 19.363281 100.675781 19.410156 Z M 100.675781 19.410156 " fill-opacity="1" fill-rule="evenodd"/></g></g></g><g fill="#db2777" fill-opacity="1"><g transform="translate(1.255825, 25.434879)"><g><path d="M 4.15625 -9.90625 L 4.15625 -9.625 C 3.832031 -9.613281 3.585938 -9.578125 3.421875 -9.515625 C 3.265625 -9.453125 3.15625 -9.335938 3.09375 -9.171875 C 3.039062 -9.015625 3.015625 -8.765625 3.015625 -8.421875 L 3.015625 -1.484375 C 3.015625 -1.148438 3.039062 -0.894531 3.09375 -0.71875 C 3.15625 -0.550781 3.265625 -0.441406 3.421875 -0.390625 C 3.585938 -0.347656 3.832031 -0.328125 4.15625 -0.328125 L 5.171875 -0.328125 C 5.609375 -0.328125 5.960938 -0.367188 6.234375 -0.453125 C 6.515625 -0.546875 6.734375 -0.691406 6.890625 -0.890625 C 7.054688 -1.097656 7.179688 -1.367188 7.265625 -1.703125 C 7.347656 -2.035156 7.414062 -2.445312 7.46875 -2.9375 L 7.796875 -2.9375 C 7.765625 -2.644531 7.75 -2.265625 7.75 -1.796875 C 7.75 -1.617188 7.753906 -1.363281 7.765625 -1.03125 C 7.785156 -0.695312 7.8125 -0.351562 7.84375 0 C 7.363281 -0.0195312 6.828125 -0.03125 6.234375 -0.03125 C 5.640625 -0.0390625 5.109375 -0.046875 4.640625 -0.046875 C 4.429688 -0.046875 4.164062 -0.046875 3.84375 -0.046875 C 3.53125 -0.046875 3.1875 -0.0390625 2.8125 -0.03125 C 2.4375 -0.03125 2.054688 -0.0234375 1.671875 -0.015625 C 1.296875 -0.015625 0.9375 -0.0078125 0.59375 0 L 0.59375 -0.28125 C 0.90625 -0.300781 1.140625 -0.335938 1.296875 -0.390625 C 1.460938 -0.441406 1.570312 -0.550781 1.625 -0.71875 C 1.6875 -0.894531 1.71875 -1.148438 1.71875 -1.484375 L 1.71875 -8.421875 C 1.71875 -8.765625 1.6875 -9.015625 1.625 -9.171875 C 1.570312 -9.335938 1.460938 -9.453125 1.296875 -9.515625 C 1.140625 -9.578125 0.90625 -9.613281 0.59375 -9.625 L 0.59375 -9.90625 C 0.78125 -9.894531 1.03125 -9.882812 1.34375 -9.875 C 1.664062 -9.863281 2.007812 -9.859375 2.375 -9.859375 C 2.695312 -9.859375 3.019531 -9.863281 3.34375 -9.875 C 3.664062 -9.882812 3.9375 -9.894531 4.15625 -9.90625 Z M 4.15625 -9.90625 "/></g></g></g><g fill="#db2777" fill-opacity="1"><g transform="translate(11.00539, 25.434879)"><g><path d="M 9.15625 -9.90625 L 9.15625 -9.625 C 8.84375 -9.613281 8.601562 -9.566406 8.4375 -9.484375 C 8.269531 -9.398438 8.160156 -9.265625 8.109375 -9.078125 C 8.054688 -8.890625 8.03125 -8.625 8.03125 -8.28125 L 8.03125 -4.0625 C 8.03125 -3.414062 7.988281 -2.847656 7.90625 -2.359375 C 7.820312 -1.878906 7.671875 -1.460938 7.453125 -1.109375 C 7.222656 -0.710938 6.882812 -0.394531 6.4375 -0.15625 C 5.988281 0.0820312 5.472656 0.203125 4.890625 0.203125 C 4.441406 0.203125 4.015625 0.144531 3.609375 0.03125 C 3.203125 -0.0703125 2.847656 -0.269531 2.546875 -0.5625 C 2.273438 -0.820312 2.0625 -1.09375 1.90625 -1.375 C 1.75 -1.664062 1.644531 -2.019531 1.59375 -2.4375 C 1.539062 -2.863281 1.515625 -3.394531 1.515625 -4.03125 L 1.515625 -8.421875 C 1.515625 -8.765625 1.484375 -9.015625 1.421875 -9.171875 C 1.367188 -9.335938 1.257812 -9.453125 1.09375 -9.515625 C 0.9375 -9.578125 0.695312 -9.613281 0.375 -9.625 L 0.375 -9.90625 C 0.570312 -9.894531 0.828125 -9.882812 1.140625 -9.875 C 1.460938 -9.863281 1.804688 -9.859375 2.171875 -9.859375 C 2.492188 -9.859375 2.816406 -9.863281 3.140625 -9.875 C 3.460938 -9.882812 3.726562 -9.894531 3.9375 -9.90625 L 3.9375 -9.625 C 3.625 -9.613281 3.382812 -9.578125 3.21875 -9.515625 C 3.0625 -9.453125 2.953125 -9.335938 2.890625 -9.171875 C 2.835938 -9.015625 2.8125 -8.765625 2.8125 -8.421875 L 2.8125 -3.796875 C 2.8125 -3.316406 2.832031 -2.863281 2.875 -2.4375 C 2.925781 -2.007812 3.023438 -1.632812 3.171875 -1.3125 C 3.316406 -1 3.535156 -0.75 3.828125 -0.5625 C 4.128906 -0.382812 4.523438 -0.296875 5.015625 -0.296875 C 5.722656 -0.296875 6.269531 -0.453125 6.65625 -0.765625 C 7.050781 -1.078125 7.320312 -1.503906 7.46875 -2.046875 C 7.625 -2.597656 7.703125 -3.222656 7.703125 -3.921875 L 7.703125 -8.28125 C 7.703125 -8.625 7.660156 -8.890625 7.578125 -9.078125 C 7.503906 -9.265625 7.375 -9.398438 7.1875 -9.484375 C 7 -9.566406 6.75 -9.613281 6.4375 -9.625 L 6.4375 -9.90625 C 6.601562 -9.894531 6.820312 -9.882812 7.09375 -9.875 C 7.375 -9.863281 7.628906 -9.859375 7.859375 -9.859375 C 8.097656 -9.859375 8.335938 -9.863281 8.578125 -9.875 C 8.816406 -9.882812 9.007812 -9.894531 9.15625 -9.90625 Z M 9.15625 -9.90625 "/></g></g></g><g fill="#db2777" fill-opacity="1"><g transform="translate(22.069797, 25.434879)"><g><path d="M 4.515625 -9.96875 L 7.921875 -1.171875 C 8.066406 -0.816406 8.226562 -0.582031 8.40625 -0.46875 C 8.582031 -0.351562 8.742188 -0.289062 8.890625 -0.28125 L 8.890625 0 C 8.703125 -0.0195312 8.472656 -0.03125 8.203125 -0.03125 C 7.929688 -0.0390625 7.660156 -0.046875 7.390625 -0.046875 C 7.035156 -0.046875 6.695312 -0.0390625 6.375 -0.03125 C 6.0625 -0.03125 5.804688 -0.0195312 5.609375 0 L 5.609375 -0.28125 C 6.085938 -0.300781 6.390625 -0.378906 6.515625 -0.515625 C 6.648438 -0.660156 6.625 -0.972656 6.4375 -1.453125 L 3.828125 -8.40625 L 4.0625 -8.59375 L 1.625 -2.265625 C 1.476562 -1.890625 1.390625 -1.570312 1.359375 -1.3125 C 1.328125 -1.0625 1.347656 -0.859375 1.421875 -0.703125 C 1.503906 -0.554688 1.640625 -0.453125 1.828125 -0.390625 C 2.023438 -0.328125 2.269531 -0.289062 2.5625 -0.28125 L 2.5625 0 C 2.300781 -0.0195312 2.023438 -0.03125 1.734375 -0.03125 C 1.453125 -0.0390625 1.191406 -0.046875 0.953125 -0.046875 C 0.710938 -0.046875 0.507812 -0.0390625 0.34375 -0.03125 C 0.1875 -0.03125 0.0390625 -0.0195312 -0.09375 0 L -0.09375 -0.28125 C 0.09375 -0.320312 0.28125 -0.425781 0.46875 -0.59375 C 0.664062 -0.769531 0.84375 -1.070312 1 -1.5 L 4.296875 -9.96875 C 4.328125 -9.96875 4.363281 -9.96875 4.40625 -9.96875 C 4.445312 -9.96875 4.484375 -9.96875 4.515625 -9.96875 Z M 6.21875 -4.03125 L 6.21875 -3.75 L 2.0625 -3.75 L 2.203125 -4.03125 Z M 6.21875 -4.03125 "/></g></g></g><g fill="#db2777" fill-opacity="1"><g transform="translate(32.406845, 25.434879)"><g><path d="M 7.5625 -9.90625 C 7.53125 -9.570312 7.503906 -9.25 7.484375 -8.9375 C 7.472656 -8.632812 7.46875 -8.40625 7.46875 -8.25 C 7.46875 -8.082031 7.472656 -7.921875 7.484375 -7.765625 C 7.492188 -7.609375 7.503906 -7.484375 7.515625 -7.390625 L 7.1875 -7.390625 C 7.132812 -7.929688 7.054688 -8.363281 6.953125 -8.6875 C 6.847656 -9.007812 6.671875 -9.238281 6.421875 -9.375 C 6.179688 -9.507812 5.8125 -9.578125 5.3125 -9.578125 L 4.15625 -9.578125 C 3.832031 -9.578125 3.585938 -9.550781 3.421875 -9.5 C 3.265625 -9.445312 3.15625 -9.335938 3.09375 -9.171875 C 3.039062 -9.015625 3.015625 -8.765625 3.015625 -8.421875 L 3.015625 -1.484375 C 3.015625 -1.148438 3.039062 -0.894531 3.09375 -0.71875 C 3.15625 -0.550781 3.265625 -0.441406 3.421875 -0.390625 C 3.585938 -0.347656 3.832031 -0.328125 4.15625 -0.328125 L 5.171875 -0.328125 C 5.765625 -0.328125 6.210938 -0.40625 6.515625 -0.5625 C 6.816406 -0.71875 7.035156 -0.972656 7.171875 -1.328125 C 7.304688 -1.691406 7.40625 -2.179688 7.46875 -2.796875 L 7.796875 -2.796875 C 7.765625 -2.546875 7.75 -2.210938 7.75 -1.796875 C 7.75 -1.617188 7.753906 -1.363281 7.765625 -1.03125 C 7.785156 -0.695312 7.8125 -0.351562 7.84375 0 C 7.363281 -0.0195312 6.828125 -0.03125 6.234375 -0.03125 C 5.640625 -0.0390625 5.109375 -0.046875 4.640625 -0.046875 C 4.429688 -0.046875 4.164062 -0.046875 3.84375 -0.046875 C 3.53125 -0.046875 3.1875 -0.0390625 2.8125 -0.03125 C 2.4375 -0.03125 2.054688 -0.0234375 1.671875 -0.015625 C 1.296875 -0.015625 0.9375 -0.0078125 0.59375 0 L 0.59375 -0.28125 C 0.90625 -0.300781 1.140625 -0.335938 1.296875 -0.390625 C 1.460938 -0.441406 1.570312 -0.550781 1.625 -0.71875 C 1.6875 -0.894531 1.71875 -1.148438 1.71875 -1.484375 L 1.71875 -8.421875 C 1.71875 -8.765625 1.6875 -9.015625 1.625 -9.171875 C 1.570312 -9.335938 1.460938 -9.453125 1.296875 -9.515625 C 1.140625 -9.578125 0.90625 -9.613281 0.59375 -9.625 L 0.59375 -9.90625 C 0.9375 -9.894531 1.296875 -9.882812 1.671875 -9.875 C 2.054688 -9.875 2.4375 -9.867188 2.8125 -9.859375 C 3.1875 -9.859375 3.53125 -9.859375 3.84375 -9.859375 C 4.164062 -9.859375 4.429688 -9.859375 4.640625 -9.859375 C 5.066406 -9.859375 5.550781 -9.859375 6.09375 -9.859375 C 6.644531 -9.867188 7.132812 -9.882812 7.5625 -9.90625 Z M 5.15625 -5.125 C 5.15625 -5.125 5.15625 -5.078125 5.15625 -4.984375 C 5.15625 -4.890625 5.15625 -4.84375 5.15625 -4.84375 L 2.59375 -4.84375 C 2.59375 -4.84375 2.59375 -4.890625 2.59375 -4.984375 C 2.59375 -5.078125 2.59375 -5.125 2.59375 -5.125 Z M 5.5625 -6.96875 C 5.53125 -6.4375 5.515625 -6.03125 5.515625 -5.75 C 5.523438 -5.46875 5.53125 -5.210938 5.53125 -4.984375 C 5.53125 -4.742188 5.53125 -4.484375 5.53125 -4.203125 C 5.539062 -3.929688 5.566406 -3.53125 5.609375 -3 L 5.28125 -3 C 5.25 -3.289062 5.207031 -3.578125 5.15625 -3.859375 C 5.101562 -4.148438 4.988281 -4.382812 4.8125 -4.5625 C 4.644531 -4.75 4.351562 -4.84375 3.9375 -4.84375 L 3.9375 -5.125 C 4.25 -5.125 4.484375 -5.1875 4.640625 -5.3125 C 4.804688 -5.4375 4.925781 -5.59375 5 -5.78125 C 5.082031 -5.976562 5.132812 -6.179688 5.15625 -6.390625 C 5.1875 -6.609375 5.21875 -6.800781 5.25 -6.96875 Z M 5.5625 -6.96875 "/></g></g></g><g fill="#db2777" fill-opacity="1"><g transform="translate(42.450151, 25.434879)"><g><path d="M 8.28125 -9.90625 C 8.238281 -9.550781 8.210938 -9.207031 8.203125 -8.875 C 8.191406 -8.539062 8.1875 -8.285156 8.1875 -8.109375 C 8.1875 -7.890625 8.1875 -7.679688 8.1875 -7.484375 C 8.195312 -7.285156 8.207031 -7.113281 8.21875 -6.96875 L 7.90625 -6.96875 C 7.832031 -7.613281 7.738281 -8.125 7.625 -8.5 C 7.519531 -8.882812 7.328125 -9.160156 7.046875 -9.328125 C 6.765625 -9.492188 6.332031 -9.578125 5.75 -9.578125 L 5 -9.578125 L 5 -1.625 C 5 -1.25 5.03125 -0.96875 5.09375 -0.78125 C 5.164062 -0.59375 5.300781 -0.46875 5.5 -0.40625 C 5.707031 -0.34375 6.007812 -0.300781 6.40625 -0.28125 L 6.40625 0 C 6.164062 -0.0195312 5.859375 -0.03125 5.484375 -0.03125 C 5.109375 -0.0390625 4.726562 -0.046875 4.34375 -0.046875 C 3.925781 -0.046875 3.53125 -0.0390625 3.15625 -0.03125 C 2.789062 -0.03125 2.5 -0.0195312 2.28125 0 L 2.28125 -0.28125 C 2.664062 -0.300781 2.960938 -0.34375 3.171875 -0.40625 C 3.378906 -0.46875 3.515625 -0.59375 3.578125 -0.78125 C 3.648438 -0.96875 3.6875 -1.25 3.6875 -1.625 L 3.6875 -9.578125 L 2.9375 -9.578125 C 2.351562 -9.578125 1.921875 -9.492188 1.640625 -9.328125 C 1.359375 -9.160156 1.160156 -8.882812 1.046875 -8.5 C 0.929688 -8.125 0.84375 -7.613281 0.78125 -6.96875 L 0.46875 -6.96875 C 0.476562 -7.113281 0.484375 -7.285156 0.484375 -7.484375 C 0.492188 -7.679688 0.5 -7.890625 0.5 -8.109375 C 0.5 -8.285156 0.492188 -8.539062 0.484375 -8.875 C 0.472656 -9.207031 0.445312 -9.550781 0.40625 -9.90625 C 0.800781 -9.894531 1.226562 -9.882812 1.6875 -9.875 C 2.144531 -9.863281 2.609375 -9.859375 3.078125 -9.859375 C 3.546875 -9.859375 3.96875 -9.859375 4.34375 -9.859375 C 4.726562 -9.859375 5.148438 -9.859375 5.609375 -9.859375 C 6.078125 -9.859375 6.539062 -9.863281 7 -9.875 C 7.46875 -9.882812 7.894531 -9.894531 8.28125 -9.90625 Z M 8.28125 -9.90625 "/></g></g></g><g fill="#db2777" fill-opacity="1"><g transform="translate(52.661313, 25.434879)"><g><path d="M 7.5625 -9.90625 C 7.53125 -9.570312 7.503906 -9.25 7.484375 -8.9375 C 7.472656 -8.632812 7.46875 -8.40625 7.46875 -8.25 C 7.46875 -8.082031 7.472656 -7.921875 7.484375 -7.765625 C 7.492188 -7.609375 7.503906 -7.484375 7.515625 -7.390625 L 7.1875 -7.390625 C 7.132812 -7.929688 7.054688 -8.363281 6.953125 -8.6875 C 6.847656 -9.007812 6.671875 -9.238281 6.421875 -9.375 C 6.179688 -9.507812 5.8125 -9.578125 5.3125 -9.578125 L 4.15625 -9.578125 C 3.832031 -9.578125 3.585938 -9.550781 3.421875 -9.5 C 3.265625 -9.445312 3.15625 -9.335938 3.09375 -9.171875 C 3.039062 -9.015625 3.015625 -8.765625 3.015625 -8.421875 L 3.015625 -1.484375 C 3.015625 -1.148438 3.039062 -0.894531 3.09375 -0.71875 C 3.15625 -0.550781 3.265625 -0.441406 3.421875 -0.390625 C 3.585938 -0.347656 3.832031 -0.328125 4.15625 -0.328125 L 5.171875 -0.328125 C 5.765625 -0.328125 6.210938 -0.40625 6.515625 -0.5625 C 6.816406 -0.71875 7.035156 -0.972656 7.171875 -1.328125 C 7.304688 -1.691406 7.40625 -2.179688 7.46875 -2.796875 L 7.796875 -2.796875 C 7.765625 -2.546875 7.75 -2.210938 7.75 -1.796875 C 7.75 -1.617188 7.753906 -1.363281 7.765625 -1.03125 C 7.785156 -0.695312 7.8125 -0.351562 7.84375 0 C 7.363281 -0.0195312 6.828125 -0.03125 6.234375 -0.03125 C 5.640625 -0.0390625 5.109375 -0.046875 4.640625 -0.046875 C 4.429688 -0.046875 4.164062 -0.046875 3.84375 -0.046875 C 3.53125 -0.046875 3.1875 -0.0390625 2.8125 -0.03125 C 2.4375 -0.03125 2.054688 -0.0234375 1.671875 -0.015625 C 1.296875 -0.015625 0.9375 -0.0078125 0.59375 0 L 0.59375 -0.28125 C 0.90625 -0.300781 1.140625 -0.335938 1.296875 -0.390625 C 1.460938 -0.441406 1.570312 -0.550781 1.625 -0.71875 C 1.6875 -0.894531 1.71875 -1.148438 1.71875 -1.484375 L 1.71875 -8.421875 C 1.71875 -8.765625 1.6875 -9.015625 1.625 -9.171875 C 1.570312 -9.335938 1.460938 -9.453125 1.296875 -9.515625 C 1.140625 -9.578125 0.90625 -9.613281 0.59375 -9.625 L 0.59375 -9.90625 C 0.9375 -9.894531 1.296875 -9.882812 1.671875 -9.875 C 2.054688 -9.875 2.4375 -9.867188 2.8125 -9.859375 C 3.1875 -9.859375 3.53125 -9.859375 3.84375 -9.859375 C 4.164062 -9.859375 4.429688 -9.859375 4.640625 -9.859375 C 5.066406 -9.859375 5.550781 -9.859375 6.09375 -9.859375 C 6.644531 -9.867188 7.132812 -9.882812 7.5625 -9.90625 Z M 5.15625 -5.125 C 5.15625 -5.125 5.15625 -5.078125 5.15625 -4.984375 C 5.15625 -4.890625 5.15625 -4.84375 5.15625 -4.84375 L 2.59375 -4.84375 C 2.59375 -4.84375 2.59375 -4.890625 2.59375 -4.984375 C 2.59375 -5.078125 2.59375 -5.125 2.59375 -5.125 Z M 5.5625 -6.96875 C 5.53125 -6.4375 5.515625 -6.03125 5.515625 -5.75 C 5.523438 -5.46875 5.53125 -5.210938 5.53125 -4.984375 C 5.53125 -4.742188 5.53125 -4.484375 5.53125 -4.203125 C 5.539062 -3.929688 5.566406 -3.53125 5.609375 -3 L 5.28125 -3 C 5.25 -3.289062 5.207031 -3.578125 5.15625 -3.859375 C 5.101562 -4.148438 4.988281 -4.382812 4.8125 -4.5625 C 4.644531 -4.75 4.351562 -4.84375 3.9375 -4.84375 L 3.9375 -5.125 C 4.25 -5.125 4.484375 -5.1875 4.640625 -5.3125 C 4.804688 -5.4375 4.925781 -5.59375 5 -5.78125 C 5.082031 -5.976562 5.132812 -6.179688 5.15625 -6.390625 C 5.1875 -6.609375 5.21875 -6.800781 5.25 -6.96875 Z M 5.5625 -6.96875 "/></g></g></g><g fill="#db2777" fill-opacity="1"><g transform="translate(62.704617, 25.434879)"><g><path d="M 0.59375 -9.90625 C 0.78125 -9.894531 1.03125 -9.882812 1.34375 -9.875 C 1.664062 -9.863281 1.984375 -9.859375 2.296875 -9.859375 C 2.734375 -9.859375 3.148438 -9.863281 3.546875 -9.875 C 3.953125 -9.882812 4.238281 -9.890625 4.40625 -9.890625 C 5.15625 -9.890625 5.78125 -9.78125 6.28125 -9.5625 C 6.78125 -9.351562 7.15625 -9.0625 7.40625 -8.6875 C 7.65625 -8.320312 7.78125 -7.910156 7.78125 -7.453125 C 7.78125 -7.171875 7.722656 -6.867188 7.609375 -6.546875 C 7.492188 -6.234375 7.296875 -5.9375 7.015625 -5.65625 C 6.742188 -5.382812 6.367188 -5.15625 5.890625 -4.96875 C 5.421875 -4.789062 4.820312 -4.703125 4.09375 -4.703125 L 2.75 -4.703125 L 2.75 -4.984375 L 3.953125 -4.984375 C 4.617188 -4.984375 5.125 -5.085938 5.46875 -5.296875 C 5.820312 -5.503906 6.0625 -5.78125 6.1875 -6.125 C 6.3125 -6.476562 6.375 -6.867188 6.375 -7.296875 C 6.375 -8.035156 6.195312 -8.609375 5.84375 -9.015625 C 5.5 -9.421875 4.90625 -9.625 4.0625 -9.625 C 3.625 -9.625 3.335938 -9.539062 3.203125 -9.375 C 3.078125 -9.21875 3.015625 -8.898438 3.015625 -8.421875 L 3.015625 -1.484375 C 3.015625 -1.148438 3.039062 -0.894531 3.09375 -0.71875 C 3.15625 -0.550781 3.265625 -0.441406 3.421875 -0.390625 C 3.585938 -0.335938 3.832031 -0.300781 4.15625 -0.28125 L 4.15625 0 C 3.9375 -0.0195312 3.664062 -0.03125 3.34375 -0.03125 C 3.019531 -0.0390625 2.695312 -0.046875 2.375 -0.046875 C 2.007812 -0.046875 1.664062 -0.0390625 1.34375 -0.03125 C 1.03125 -0.03125 0.78125 -0.0195312 0.59375 0 L 0.59375 -0.28125 C 0.90625 -0.300781 1.140625 -0.335938 1.296875 -0.390625 C 1.460938 -0.441406 1.570312 -0.550781 1.625 -0.71875 C 1.6875 -0.894531 1.71875 -1.148438 1.71875 -1.484375 L 1.71875 -8.421875 C 1.71875 -8.765625 1.6875 -9.015625 1.625 -9.171875 C 1.570312 -9.335938 1.460938 -9.453125 1.296875 -9.515625 C 1.140625 -9.578125 0.90625 -9.613281 0.59375 -9.625 Z M 2.8125 -4.9375 C 3.3125 -4.914062 3.707031 -4.894531 4 -4.875 C 4.289062 -4.851562 4.523438 -4.832031 4.703125 -4.8125 C 4.890625 -4.789062 5.066406 -4.765625 5.234375 -4.734375 C 5.859375 -4.640625 6.304688 -4.453125 6.578125 -4.171875 C 6.859375 -3.898438 7.0625 -3.472656 7.1875 -2.890625 L 7.53125 -1.46875 C 7.625 -1.0625 7.71875 -0.765625 7.8125 -0.578125 C 7.914062 -0.398438 8.070312 -0.316406 8.28125 -0.328125 C 8.4375 -0.328125 8.566406 -0.375 8.671875 -0.46875 C 8.785156 -0.5625 8.898438 -0.691406 9.015625 -0.859375 L 9.234375 -0.703125 C 9.035156 -0.410156 8.832031 -0.1875 8.625 -0.03125 C 8.414062 0.125 8.117188 0.203125 7.734375 0.203125 C 7.390625 0.203125 7.085938 0.0976562 6.828125 -0.109375 C 6.566406 -0.316406 6.367188 -0.71875 6.234375 -1.3125 L 5.921875 -2.71875 C 5.835938 -3.113281 5.742188 -3.457031 5.640625 -3.75 C 5.535156 -4.050781 5.382812 -4.285156 5.1875 -4.453125 C 5 -4.617188 4.71875 -4.703125 4.34375 -4.703125 L 2.84375 -4.703125 Z M 2.8125 -4.9375 "/></g></g></g><g fill="#db2777" fill-opacity="1"><g transform="translate(73.293444, 25.434879)"><g><path d="M 9.375 -9.90625 L 9.375 -9.625 C 9.050781 -9.613281 8.804688 -9.566406 8.640625 -9.484375 C 8.484375 -9.398438 8.375 -9.265625 8.3125 -9.078125 C 8.257812 -8.890625 8.234375 -8.625 8.234375 -8.28125 L 8.234375 0.0625 C 8.179688 0.0625 8.128906 0.0625 8.078125 0.0625 C 8.023438 0.0625 7.972656 0.0625 7.921875 0.0625 L 2.046875 -9 L 2.046875 -1.625 C 2.046875 -1.289062 2.070312 -1.023438 2.125 -0.828125 C 2.1875 -0.640625 2.304688 -0.503906 2.484375 -0.421875 C 2.671875 -0.347656 2.945312 -0.300781 3.3125 -0.28125 L 3.3125 0 C 3.144531 -0.0195312 2.925781 -0.03125 2.65625 -0.03125 C 2.382812 -0.0390625 2.128906 -0.046875 1.890625 -0.046875 C 1.648438 -0.046875 1.410156 -0.0390625 1.171875 -0.03125 C 0.941406 -0.03125 0.75 -0.0195312 0.59375 0 L 0.59375 -0.28125 C 0.90625 -0.300781 1.140625 -0.347656 1.296875 -0.421875 C 1.460938 -0.503906 1.570312 -0.640625 1.625 -0.828125 C 1.6875 -1.023438 1.71875 -1.289062 1.71875 -1.625 L 1.71875 -8.421875 C 1.71875 -8.765625 1.6875 -9.015625 1.625 -9.171875 C 1.570312 -9.335938 1.460938 -9.453125 1.296875 -9.515625 C 1.140625 -9.578125 0.90625 -9.613281 0.59375 -9.625 L 0.59375 -9.90625 C 0.75 -9.894531 0.941406 -9.882812 1.171875 -9.875 C 1.410156 -9.863281 1.648438 -9.859375 1.890625 -9.859375 C 2.097656 -9.859375 2.289062 -9.863281 2.46875 -9.875 C 2.65625 -9.882812 2.828125 -9.894531 2.984375 -9.90625 L 7.921875 -2.296875 L 7.921875 -8.28125 C 7.921875 -8.625 7.890625 -8.890625 7.828125 -9.078125 C 7.765625 -9.265625 7.640625 -9.398438 7.453125 -9.484375 C 7.273438 -9.566406 7.003906 -9.613281 6.640625 -9.625 L 6.640625 -9.90625 C 6.804688 -9.894531 7.023438 -9.882812 7.296875 -9.875 C 7.578125 -9.863281 7.832031 -9.859375 8.0625 -9.859375 C 8.3125 -9.859375 8.550781 -9.863281 8.78125 -9.875 C 9.019531 -9.882812 9.21875 -9.894531 9.375 -9.90625 Z M 9.375 -9.90625 "/></g></g></g><g fill="#db2777" fill-opacity="1"><g transform="translate(84.693554, 25.434879)"><g><path d="M 4.515625 -9.96875 L 7.921875 -1.171875 C 8.066406 -0.816406 8.226562 -0.582031 8.40625 -0.46875 C 8.582031 -0.351562 8.742188 -0.289062 8.890625 -0.28125 L 8.890625 0 C 8.703125 -0.0195312 8.472656 -0.03125 8.203125 -0.03125 C 7.929688 -0.0390625 7.660156 -0.046875 7.390625 -0.046875 C 7.035156 -0.046875 6.695312 -0.0390625 6.375 -0.03125 C 6.0625 -0.03125 5.804688 -0.0195312 5.609375 0 L 5.609375 -0.28125 C 6.085938 -0.300781 6.390625 -0.378906 6.515625 -0.515625 C 6.648438 -0.660156 6.625 -0.972656 6.4375 -1.453125 L 3.828125 -8.40625 L 4.0625 -8.59375 L 1.625 -2.265625 C 1.476562 -1.890625 1.390625 -1.570312 1.359375 -1.3125 C 1.328125 -1.0625 1.347656 -0.859375 1.421875 -0.703125 C 1.503906 -0.554688 1.640625 -0.453125 1.828125 -0.390625 C 2.023438 -0.328125 2.269531 -0.289062 2.5625 -0.28125 L 2.5625 0 C 2.300781 -0.0195312 2.023438 -0.03125 1.734375 -0.03125 C 1.453125 -0.0390625 1.191406 -0.046875 0.953125 -0.046875 C 0.710938 -0.046875 0.507812 -0.0390625 0.34375 -0.03125 C 0.1875 -0.03125 0.0390625 -0.0195312 -0.09375 0 L -0.09375 -0.28125 C 0.09375 -0.320312 0.28125 -0.425781 0.46875 -0.59375 C 0.664062 -0.769531 0.84375 -1.070312 1 -1.5 L 4.296875 -9.96875 C 4.328125 -9.96875 4.363281 -9.96875 4.40625 -9.96875 C 4.445312 -9.96875 4.484375 -9.96875 4.515625 -9.96875 Z M 6.21875 -4.03125 L 6.21875 -3.75 L 2.0625 -3.75 L 2.203125 -4.03125 Z M 6.21875 -4.03125 "/></g></g></g></svg>